<?xml version="1.0" encoding="UTF-8"?>
<!DOCTYPE svg PUBLIC "-//W3C//DTD SVG 1.1//EN" "http://www.w3.org/Graphics/SVG/1.1/DTD/svg11.dtd">
<!-- Creator: CorelDRAW -->
<svg xmlns="http://www.w3.org/2000/svg" xml:space="preserve" width="8.3072mm" height="10.8222mm" version="1.1" style="shape-rendering:geometricPrecision; text-rendering:geometricPrecision; image-rendering:optimizeQuality; fill-rule:evenodd; clip-rule:evenodd"
viewBox="0 0 39.16 51.02"
 xmlns:xlink="http://www.w3.org/1999/xlink"
 xmlns:xodm="http://www.corel.com/coreldraw/odm/2003">
 <defs>
  <style type="text/css">
   <![CDATA[
    .str0 {stroke:#FEFEFE;stroke-width:0.94;stroke-miterlimit:22.9256}
    .fil0 {fill:none}
   ]]>
  </style>
 </defs>
 <g id="Camada_x0020_1">
  <metadata id="CorelCorpID_0Corel-Layer"/>
  <path class="fil0 str0" d="M4.58 33.04c1.17,2.43 3.12,5.08 4.67,7.28l3.64 4.54c0.15,0.16 0.22,0.17 0.38,0.35 0.24,0.26 0.4,0.59 0.65,0.82 0.15,0.15 0.25,0.18 0.4,0.32 0.85,0.78 1.56,1.89 3.39,3.43 2.23,1.88 4.04,-0.06 5.68,-1.77l1.26 -1.36c0.22,-0.28 0.06,0.13 0.13,-0.23 0.27,-0.15 1.73,-1.88 2.01,-2.23 1.88,-2.31 2.99,-3.6 4.71,-6.18 0.22,-0.33 0.41,-0.67 0.66,-1.02 0.74,-1.03 1.83,-3.03 2.49,-4.22 2.27,-4.08 4,-9.41 4.04,-14.05 0.06,-8.28 -6.43,-16.59 -14.74,-17.82 -2.78,-0.32 -4.77,-0.67 -7.63,-0.19 -5.6,0.94 -11.09,4.18 -13.67,9.38 -1.02,2.06 -1.49,3.16 -1.93,5.51 -0.46,2.47 -0.19,4.5 0.08,6.97 0.29,0.96 0.5,2.26 0.78,3.3 0.67,2.44 1.9,4.89 3,7.16zm17.88 -19.43c0.57,0.33 0.9,0.8 1.35,0.99 0.4,-0.31 1.78,-1.59 1.98,-2.06 -0.53,-0.7 -1.32,-1.33 -2.09,-1.75 -0.86,-0.46 -1.82,-0.84 -2.9,-0.99 -6.07,-0.84 -10.26,4.15 -9.55,9.97 0.74,6.06 7.7,8.99 13.04,6 0.54,-0.3 1.65,-1.09 1.93,-1.57 0.28,-0.47 0.2,-5.98 0.05,-6.77l-6.85 0.04 0.03 2.7c0.03,0.01 0.07,0.02 0.1,0.03 0.57,0.12 1.07,0.06 1.78,0.06 0.6,-0 1.23,-0.02 1.83,0l0.03 2.65c-0.44,0.19 -0.87,0.54 -1.53,0.73 -2.74,0.79 -5.35,-0.17 -6.6,-2.72 -2.44,-4.98 2.54,-10.12 7.41,-7.31zm2.55 18.52c-5.94,2.34 -13.86,0.25 -17.67,-4.97 -1.2,-1.64 -1.33,-2.15 -2.19,-4.07 -1.5,-4.79 -0.51,-9.58 2.49,-13.14 2.65,-3.14 5.89,-4.85 9.91,-5.48 2.74,-0.43 6.11,0.16 8.6,1.36 2.14,1.04 4.25,2.57 5.65,4.5 2.21,3.04 2.77,4.98 2.92,8.81 0.05,5.9 -4.45,10.91 -9.71,12.98zm-1 6.3c0.1,0.73 -0.06,1.31 -0.32,1.94 -0.79,1.96 -1.94,2.64 -3.41,3.91l-0.22 0.2c-0.45,0.35 -0.67,0.2 -1.03,-0.11 -0.2,-0.17 -0.24,-0.18 -0.41,-0.32 -1.29,-1.28 -2.34,-2.04 -3.15,-3.7 -1.46,-2.98 1.31,-4.63 3.39,-3.24 0.48,0.32 0.31,0.21 0.62,0.59 0.54,-0.45 0.34,-0.44 1.54,-0.93 1.43,-0.59 2.77,0.11 2.98,1.66z"/>
 </g>
</svg>
